# xmcd
#
# Track frame offsets:
#  150
#  2605
#  19393
#  32821
#  52847
#  62609
#  76409
#  87637
#  104407
#  120068
#  133698
#  151089
#  167827
#  185229
#  199003
#
# Disc length: 2872 seconds
#
# Revision: 0
# Processed by: cddbd v1.5.2PL0 Copyright (c) Steve Scherf et al.
# Submitted via: Collectorz.com_Music_Collector 6.11
#
DISCID=bc0b360f
DTITLE=Various Artist - NfS Country Singles Volume 19
DYEAR=1994
DGENRE=Country
TTITLE0=CMAA Jingle
TTITLE1=Rene Diaz - Cityslicker Country Heart
TTITLE2=tracy coster - Someone
TTITLE3=Graeme Connors - Love Works
TTITLE4=Kelvin Nolan - Winter Winds
TTITLE5=Brian letton - I Missed Me
TTITLE6=Darren Howard - DJ's Dream
TTITLE7=Steve Gibson/Clint Beattie - You Can't Change That
TTITLE8=Great Divide - Yippi yi Yo
TTITLE9=Chris Fisher - This Country
TTITLE10=Maurice Hardy - The Shoulder
TTITLE11=peter salata - Trying To Forget You
TTITLE12=Foster and Allen - The Gypsy Rover
TTITLE13=Willie Nelson - Once You're Passed The Blues
TTITLE14=Tracy Lawrence - I See It Now
EXTD=
EXTT0=
EXTT1=
EXTT2=
EXTT3=
EXTT4=
EXTT5=
EXTT6=
EXTT7=
EXTT8=
EXTT9=
EXTT10=
EXTT11=
EXTT12=
EXTT13=
EXTT14=
PLAYORDER=
